
<svg version="1.1" id="Layer_1" xmlns="http://www.w3.org/2000/svg" xmlns:xlink="http://www.w3.org/1999/xlink" x="0px" y="0px"
	 viewBox="0 0 1366 768" style="enable-background:new 0 0 1366 768;" xml:space="preserve">
<style type="text/css">
	.st0{fill:url(#SVGID_1_);}
	.st1{fill:url(#SVGID_2_);}
	.st2{fill:#00FF30;}
</style>
<g>
	<g>
		<linearGradient id="SVGID_1_" gradientUnits="userSpaceOnUse" x1="238.7509" y1="149.3619" x2="227.3825" y2="316.4777">
			<stop  offset="0" style="stop-color:#637BFF"/>
			<stop  offset="1" style="stop-color:#21C8F6"/>
		</linearGradient>
		<path class="st0" d="M333,278c0,13.2-10.8,24-24,24c-5.7,0-10.9-2-15-5.3c-6.2,4.6-13.8,7.3-22,7.3c-7,0-13.5-1.9-19-5.3
			c-6.8,3.4-14.4,5.3-22.5,5.3c-9.6,0-18.7-2.7-26.3-7.4c-6.2,4.6-13.8,7.4-22.2,7.4c-6.9,0-13.4-1.9-19-5.2
			c-3.5,2.1-7.6,3.2-12,3.2c-13.2,0-24-10.8-24-24c0-12,8.8-21.9,20.2-23.7C152.4,240.1,166,230,182,230c1.2,0,2.5,0.1,3.7,0.2
			C194.1,214,211,203,230.5,203c19.5,0,36.4,11,44.8,27.1c14.5,1.3,26.5,10.9,31.4,24c0.8-0.1,1.5-0.1,2.3-0.1
			C322.2,254,333,264.8,333,278z"/>
	</g>
</g>
<g>
	<g>
		
			<linearGradient id="SVGID_2_" gradientUnits="userSpaceOnUse" x1="1243.8123" y1="142.4714" x2="1232.4438" y2="309.5872" gradientTransform="matrix(0.9984 5.647236e-02 -5.647236e-02 0.9984 10.8362 -64.4628)">
			<stop  offset="0" style="stop-color:#637BFF"/>
			<stop  offset="1" style="stop-color:#21C8F6"/>
		</linearGradient>
		<path class="st1" d="M1331.5,281.8c-0.7,13.2-12.1,23.4-25.3,22.6c-5.7-0.3-10.8-2.6-14.7-6.1c-6.4,4.2-14.1,6.5-22.4,6
			c-6.9-0.4-13.3-2.7-18.7-6.3c-6.9,3-14.7,4.4-22.7,4c-9.6-0.5-18.5-3.7-25.9-8.9c-6.4,4.3-14.2,6.6-22.6,6.1
			c-6.9-0.4-13.3-2.7-18.7-6.3c-3.7,1.9-7.8,2.8-12.2,2.6c-13.2-0.7-23.4-12.1-22.6-25.3c0.7-12,10-21.4,21.5-22.5
			c6-13.9,20.1-23.2,36.1-22.3c1.2,0.1,2.5,0.2,3.7,0.4c9.3-15.6,26.8-25.7,46.3-24.6c19.4,1.1,35.7,13,43.2,29.6
			c14.4,2.1,25.9,12.3,30,25.7c0.8,0,1.5,0,2.3,0C1322.1,257.2,1332.2,268.5,1331.5,281.8z"/>
	</g>
</g>
<path class="st2" d="M0,155c85.6-0.3,154.9-69.8,154.9-155.5H0V155z"/>
</svg>
