<?xml version="1.0" encoding="utf-8"?>
<!-- Generator: Adobe Illustrator 25.0.1, SVG Export Plug-In . SVG Version: 6.00 Build 0)  -->
<svg version="1.1" xmlns="http://www.w3.org/2000/svg" xmlns:xlink="http://www.w3.org/1999/xlink" x="0px" y="0px"
	 viewBox="0 0 64 32" style="enable-background:new 0 0 64 32;" xml:space="preserve">
<style type="text/css">
	.st0{fill:#EF4023;}
	.st1{fill:#3AB54A;}
	.st2{fill:#FCB040;}
	.st3{fill:#FFFFFF;}
</style>
<g id="Layer_1">
	<path class="st0" d="M2.16,31.17H16c0-5.99,3.4-11.17,8.37-13.75L11.63,9.58C5.81,14.94,2.16,22.63,2.16,31.17z"/>
	<path class="st1" d="M52.37,9.58l-12.74,7.84C44.6,20,48,25.19,48,31.17h13.84C61.84,22.63,58.19,14.94,52.37,9.58z"/>
	<path class="st2" d="M32,1.33c-7.66,0-14.64,2.94-19.87,7.75l12.74,7.84c2.14-1.11,4.56-1.75,7.13-1.75s5,0.64,7.13,1.75
		l12.74-7.84C46.64,4.27,39.66,1.33,32,1.33z"/>
	<circle class="st3" cx="32" cy="8.5" r="5.5"/>
	<circle class="st3" cx="53" cy="21.5" r="5.5"/>
	<circle class="st3" cx="11" cy="21.5" r="5.5"/>
	<path class="st2" d="M34.2,10.8h-4.4c-0.17,0-0.3-0.13-0.3-0.3l0,0c0-0.17,0.13-0.3,0.3-0.3h4.4c0.17,0,0.3,0.13,0.3,0.3l0,0
		C34.5,10.67,34.37,10.8,34.2,10.8z"/>
	<circle class="st2" cx="30" cy="7" r="1"/>
	<circle class="st1" cx="51" cy="20" r="1"/>
	<circle class="st1" cx="55" cy="20" r="1"/>
	<circle class="st2" cx="34" cy="7" r="1"/>
	<g>
		<path class="st1" d="M53,25c1.66,0,3-0.9,3-2h-6C50,24.1,51.34,25,53,25z"/>
	</g>
	<circle class="st3" cx="53" cy="21.5" r="5.5"/>
	<circle class="st1" cx="51" cy="20" r="1"/>
	<circle class="st1" cx="55" cy="20" r="1"/>
	<g>
		<path class="st1" d="M53,25c1.66,0,3-0.9,3-2h-6C50,24.1,51.34,25,53,25z"/>
	</g>
	<circle class="st0" cx="9" cy="20" r="1"/>
	<circle class="st0" cx="13" cy="20" r="1"/>
	<path class="st0" d="M14,25c-0.34-0.25-1.42-1-3-1c-0.42,0-1.74,0.05-3,1c0-0.33,0-0.67,0-1c0.34-0.25,1.42-1,3-1
		c0.42,0,1.74,0.05,3,1C14,24.33,14,24.67,14,25z"/>
	<g>
		<path d="M32.36,29.36c-2.49,0-4.5-2.01-4.5-4.5s2.01-4.5,4.5-4.5c1.65,0,3.08,0.88,3.86,2.2l5.68,1.97c0.32,0.11,0.32,0.55,0,0.66
			l-5.68,1.97C35.44,28.48,34.01,29.36,32.36,29.36z"/>
	</g>
</g>
<g id="ref_grids">
</g>
</svg>
