<?xml version="1.0" encoding="utf-8"?>
<!-- Generator: Adobe Illustrator 25.0.1, SVG Export Plug-In . SVG Version: 6.00 Build 0)  -->
<svg version="1.1" xmlns="http://www.w3.org/2000/svg" xmlns:xlink="http://www.w3.org/1999/xlink" x="0px" y="0px"
	 viewBox="0 0 64 39" style="enable-background:new 0 0 64 39;" xml:space="preserve">
<style type="text/css">
	.st0{fill:#EF4023;}
	.st1{fill:#3AB54A;}
	.st2{fill:#FCB040;}
	.st3{fill:#FFFFFF;}
	.st4{fill:url(#SVGID_1_);stroke:#FFFFFF;stroke-miterlimit:10;}
	.st5{fill:url(#SVGID_2_);}
	.st6{fill:url(#SVGID_3_);}
	.st7{fill:url(#SVGID_4_);}
</style>
<g id="Layer_1">
	<path class="st0" d="M-81.8,39.2H-68c0-6,3.4-11.2,8.4-13.8l-12.7-7.8C-78.2,22.9-81.8,30.6-81.8,39.2z"/>
	<path class="st1" d="M-31.6,17.6l-12.7,7.8c5,2.6,8.4,7.8,8.4,13.8h13.8C-22.2,30.6-25.8,22.9-31.6,17.6z"/>
	<path class="st2" d="M-52,9.3c-7.7,0-14.6,2.9-19.9,7.8l12.7,7.8c2.1-1.1,4.6-1.7,7.1-1.7s5,0.6,7.1,1.7l12.7-7.8
		C-37.4,12.3-44.3,9.3-52,9.3z"/>
	<circle class="st3" cx="-52" cy="16.5" r="5.5"/>
	<circle class="st3" cx="-31" cy="29.5" r="5.5"/>
	<circle class="st3" cx="-73" cy="29.5" r="5.5"/>
	<path class="st2" d="M-49.8,18.8h-4.4c-0.2,0-0.3-0.1-0.3-0.3l0,0c0-0.2,0.1-0.3,0.3-0.3h4.4c0.2,0,0.3,0.1,0.3,0.3l0,0
		C-49.5,18.7-49.6,18.8-49.8,18.8z"/>
	<circle class="st2" cx="-54" cy="15" r="1"/>
	<circle class="st1" cx="-33" cy="28" r="1"/>
	<circle class="st1" cx="-29" cy="28" r="1"/>
	<circle class="st2" cx="-50" cy="15" r="1"/>
	<g>
		<path class="st1" d="M-31,33c1.7,0,3-0.9,3-2h-6C-34,32.1-32.7,33-31,33z"/>
	</g>
	<circle class="st3" cx="-31" cy="29.5" r="5.5"/>
	<circle class="st1" cx="-33" cy="28" r="1"/>
	<circle class="st1" cx="-29" cy="28" r="1"/>
	<g>
		<path class="st1" d="M-31,33c1.7,0,3-0.9,3-2h-6C-34,32.1-32.7,33-31,33z"/>
	</g>
	<circle class="st0" cx="-75" cy="28" r="1"/>
	<circle class="st0" cx="-71" cy="28" r="1"/>
	<path class="st0" d="M-70,33c-0.3-0.3-1.4-1-3-1c-0.4,0-1.7,0.1-3,1c0-0.3,0-0.7,0-1c0.3-0.3,1.4-1,3-1c0.4,0,1.7,0.1,3,1
		C-70,32.3-70,32.7-70,33z"/>
	<g>
		<path d="M-51.6,37.4c-2.5,0-4.5-2-4.5-4.5s2-4.5,4.5-4.5c1.7,0,3.1,0.9,3.9,2.2l5.7,2c0.3,0.1,0.3,0.5,0,0.7l-5.7,2
			C-48.6,36.5-50,37.4-51.6,37.4z"/>
	</g>
</g>
<g id="ref_grids">
</g>
<g id="Layer_3">
	<g>
		<path class="st1" d="M45,13c-0.1,1.3-2.3,1.3-3,3c-0.9,2.3,1.9,4.5,1,6c-0.7,1.1-2.5,0-5,1c-3.6,1.4-4,5.2-6,5
			c-1.6-0.1-1.4-2.7-4-4c-2.7-1.3-4.9,0.3-6-1c-1.1-1.4,1.2-3.6,0-6c-0.9-1.8-2.8-1.6-3-3c-0.3-1.6,2-2,3-5c0.7-2.1,0.1-3.3,1-4
			c1-0.8,2.1,0.4,4,0c2.8-0.6,3.1-4,5-4c1.9,0,2.1,3.2,5,4c2.4,0.6,4.1-0.9,5,0c0.8,0.8-0.6,2.1,0,4C42.7,11.3,45.1,11.6,45,13z"/>
		<linearGradient id="SVGID_1_" gradientUnits="userSpaceOnUse" x1="32.3601" y1="7.2487" x2="31.7917" y2="17.9065">
			<stop  offset="0" style="stop-color:#EC454F"/>
			<stop  offset="1" style="stop-color:#F44881"/>
		</linearGradient>
		<circle class="st4" cx="32" cy="14" r="8.9"/>
		<g>
			<linearGradient id="SVGID_2_" gradientUnits="userSpaceOnUse" x1="33.6445" y1="7.8476" x2="29.2235" y2="21.9949">
				<stop  offset="0" style="stop-color:#3AB54A"/>
				<stop  offset="0.3925" style="stop-color:#3CB64C"/>
				<stop  offset="0.5338" style="stop-color:#43B852"/>
				<stop  offset="0.6346" style="stop-color:#4EBD5D"/>
				<stop  offset="0.7162" style="stop-color:#5FC36C"/>
				<stop  offset="0.786" style="stop-color:#75CB81"/>
				<stop  offset="0.8478" style="stop-color:#91D69A"/>
				<stop  offset="0.9037" style="stop-color:#B1E2B7"/>
				<stop  offset="0.9534" style="stop-color:#D5EFD9"/>
				<stop  offset="1" style="stop-color:#FFFFFF"/>
			</linearGradient>
			<polygon class="st5" points="36.9,10.7 30.4,18.3 30.2,18.1 29.2,17.3 27.1,15.6 28.1,14.4 30.2,16.2 35.7,9.7 			"/>
		</g>
		
			<linearGradient id="SVGID_3_" gradientUnits="userSpaceOnUse" x1="23.7043" y1="23.6864" x2="18.1595" y2="41.4298" gradientTransform="matrix(0.9424 0.3345 -0.3345 0.9424 14.1399 -3.8191)">
			<stop  offset="0" style="stop-color:#3AB54A"/>
			<stop  offset="0.3925" style="stop-color:#3CB64C"/>
			<stop  offset="0.5338" style="stop-color:#43B852"/>
			<stop  offset="0.6346" style="stop-color:#4EBD5D"/>
			<stop  offset="0.7162" style="stop-color:#5FC36C"/>
			<stop  offset="0.786" style="stop-color:#75CB81"/>
			<stop  offset="0.8478" style="stop-color:#91D69A"/>
			<stop  offset="0.9037" style="stop-color:#B1E2B7"/>
			<stop  offset="0.9534" style="stop-color:#D5EFD9"/>
			<stop  offset="1" style="stop-color:#FFFFFF"/>
		</linearGradient>
		<polygon class="st6" points="23,26.3 19.3,36.7 23.8,33 25,38.7 28.7,28.3 		"/>
		
			<linearGradient id="SVGID_4_" gradientUnits="userSpaceOnUse" x1="40.2883" y1="18.4026" x2="34.7436" y2="36.1459" gradientTransform="matrix(0.9083 -0.4184 0.4184 0.9083 -5.2665 25.1174)">
			<stop  offset="0" style="stop-color:#3AB54A"/>
			<stop  offset="0.3925" style="stop-color:#3CB64C"/>
			<stop  offset="0.5338" style="stop-color:#43B852"/>
			<stop  offset="0.6346" style="stop-color:#4EBD5D"/>
			<stop  offset="0.7162" style="stop-color:#5FC36C"/>
			<stop  offset="0.786" style="stop-color:#75CB81"/>
			<stop  offset="0.8478" style="stop-color:#91D69A"/>
			<stop  offset="0.9037" style="stop-color:#B1E2B7"/>
			<stop  offset="0.9534" style="stop-color:#D5EFD9"/>
			<stop  offset="1" style="stop-color:#FFFFFF"/>
		</linearGradient>
		<polygon class="st7" points="35,28.8 39.6,38.8 40.2,33 45,36.2 40.4,26.2 		"/>
	</g>
</g>
</svg>
