<?xml version="1.0" encoding="utf-8"?>
<!-- Generator: Adobe Illustrator 25.0.1, SVG Export Plug-In . SVG Version: 6.00 Build 0)  -->
<svg version="1.1" xmlns="http://www.w3.org/2000/svg" xmlns:xlink="http://www.w3.org/1999/xlink" x="0px" y="0px"
	 viewBox="0 0 64 37" style="enable-background:new 0 0 64 37;" xml:space="preserve">
<style type="text/css">
	.st0{fill:#EF4023;}
	.st1{fill:#3AB54A;}
	.st2{fill:#FCB040;}
	.st3{fill:#FFFFFF;}
	.st4{fill:#328AF1;}
	.st5{fill:url(#SVGID_1_);stroke:#FFFFFF;stroke-miterlimit:10;}
	.st6{fill:url(#SVGID_2_);}
</style>
<g id="Layer_1">
	<path class="st0" d="M2.2-39.8H16c0-6,3.4-11.2,8.4-13.8l-12.7-7.8C5.8-56.1,2.2-48.4,2.2-39.8z"/>
	<path class="st1" d="M52.4-61.4l-12.7,7.8c5,2.6,8.4,7.8,8.4,13.8h13.8C61.8-48.4,58.2-56.1,52.4-61.4z"/>
	<path class="st2" d="M32-69.7c-7.7,0-14.6,2.9-19.9,7.8l12.7,7.8c2.1-1.1,4.6-1.7,7.1-1.7s5,0.6,7.1,1.7l12.7-7.8
		C46.6-66.7,39.7-69.7,32-69.7z"/>
	<circle class="st3" cx="11" cy="-49.5" r="5.5"/>
	<circle class="st3" cx="53" cy="-49.5" r="5.5"/>
	<circle class="st3" cx="32" cy="-62.5" r="5.5"/>
	<path class="st2" d="M34.2-60.2h-4.4c-0.2,0-0.3-0.1-0.3-0.3l0,0c0-0.2,0.1-0.3,0.3-0.3h4.4c0.2,0,0.3,0.1,0.3,0.3l0,0
		C34.5-60.3,34.4-60.2,34.2-60.2z"/>
	<circle class="st2" cx="30" cy="-64" r="1"/>
	<circle class="st1" cx="51" cy="-51" r="1"/>
	<circle class="st1" cx="55" cy="-51" r="1"/>
	<circle class="st2" cx="34" cy="-64" r="1"/>
	<g>
		<path class="st1" d="M53-46c1.7,0,3-0.9,3-2h-6C50-46.9,51.3-46,53-46z"/>
	</g>
	<circle class="st3" cx="53" cy="-49.5" r="5.5"/>
	<circle class="st1" cx="51" cy="-51" r="1"/>
	<circle class="st1" cx="55" cy="-51" r="1"/>
	<g>
		<path class="st1" d="M53-46c1.7,0,3-0.9,3-2h-6C50-46.9,51.3-46,53-46z"/>
	</g>
	<circle class="st0" cx="9" cy="-51" r="1"/>
	<circle class="st0" cx="13" cy="-51" r="1"/>
	<path class="st0" d="M14-46c-0.3-0.3-1.4-1-3-1c-0.4,0-1.7,0.1-3,1c0-0.3,0-0.7,0-1c0.3-0.3,1.4-1,3-1c0.4,0,1.7,0.1,3,1
		C14-46.7,14-46.3,14-46z"/>
	<g>
		<path d="M32.4-41.6c-2.5,0-4.5-2-4.5-4.5s2-4.5,4.5-4.5c1.7,0,3.1,0.9,3.9,2.2l5.7,2c0.3,0.1,0.3,0.5,0,0.7l-5.7,2
			C35.4-42.5,34-41.6,32.4-41.6z"/>
	</g>
</g>
<g id="Layer_4">
	<path class="st1" d="M33,36l11.5-10.4c0.2-0.2,0.1-0.5-0.2-0.5H21.3c-0.3,0-0.4,0.3-0.2,0.5L32.6,36C32.7,36.1,32.9,36.1,33,36z"/>
	<path class="st1" d="M40.5,25.5H25.1V5c0-1.4,1.1-2.5,2.6-2.5H38c1.4,0,2.5,1.1,2.5,2.5V25.5z"/>
	<path class="st4" d="M39,2H26.6c-0.8,0-1.5,0.7-1.5,1.5v2.8h15.4V3.5C40.5,2.7,39.8,2,39,2z"/>
	<path d="M28.1,21.6c0-0.1,0-0.1,0-0.2c0-4.1,2.1-7.5,4.8-7.5s4.8,3.3,4.8,7.5c0,0.1,0,0.1,0,0.2h0.7c0-0.1,0-0.1,0-0.2
		c0-4.6-2.4-8.3-5.5-8.3s-5.5,3.7-5.5,8.3c0,0.1,0,0.1,0,0.2H28.1z"/>
	<polygon points="33.2,21.3 32.4,21.6 32.4,12.6 33.2,12.2 	"/>
	<g>
		<path class="st3" d="M27.9,5h-0.3c-0.1,0-0.3-0.1-0.3-0.3V3.5c0-0.1,0.1-0.3,0.3-0.3h0.3c0.1,0,0.3,0.1,0.3,0.3v1.2
			C28.1,4.9,28,5,27.9,5z"/>
		<path class="st3" d="M30.4,5h-0.3c-0.1,0-0.3-0.1-0.3-0.3V3.5c0-0.1,0.1-0.3,0.3-0.3h0.3c0.1,0,0.3,0.1,0.3,0.3v1.2
			C30.7,4.9,30.6,5,30.4,5z"/>
		<path class="st3" d="M33,5h-0.3c-0.1,0-0.3-0.1-0.3-0.3V3.5c0-0.1,0.1-0.3,0.3-0.3H33c0.1,0,0.3,0.1,0.3,0.3v1.2
			C33.2,4.9,33.1,5,33,5z"/>
		<path class="st3" d="M35.5,5h-0.3C35.1,5,35,4.9,35,4.7V3.5c0-0.1,0.1-0.3,0.3-0.3h0.3c0.1,0,0.3,0.1,0.3,0.3v1.2
			C35.8,4.9,35.7,5,35.5,5z"/>
		<path class="st3" d="M38.1,5h-0.3c-0.1,0-0.3-0.1-0.3-0.3V3.5c0-0.1,0.1-0.3,0.3-0.3h0.3c0.1,0,0.3,0.1,0.3,0.3v1.2
			C38.4,4.9,38.2,5,38.1,5z"/>
	</g>
</g>
<g id="ref_grids">
</g>
<g id="Layer_3">
	<circle class="st1" cx="116" cy="-65" r="12.5"/>
	<linearGradient id="SVGID_1_" gradientUnits="userSpaceOnUse" x1="116.3601" y1="-71.7515" x2="115.7917" y2="-61.0936">
		<stop  offset="0" style="stop-color:#EC454F"/>
		<stop  offset="1" style="stop-color:#F44881"/>
	</linearGradient>
	<circle class="st5" cx="116" cy="-65" r="8.9"/>
	<g>
		<linearGradient id="SVGID_2_" gradientUnits="userSpaceOnUse" x1="117.6445" y1="-71.1525" x2="113.2235" y2="-57.0052">
			<stop  offset="0" style="stop-color:#3AB54A"/>
			<stop  offset="0.3925" style="stop-color:#3CB64C"/>
			<stop  offset="0.5338" style="stop-color:#43B852"/>
			<stop  offset="0.6346" style="stop-color:#4EBD5D"/>
			<stop  offset="0.7162" style="stop-color:#5FC36C"/>
			<stop  offset="0.786" style="stop-color:#75CB81"/>
			<stop  offset="0.8478" style="stop-color:#91D69A"/>
			<stop  offset="0.9037" style="stop-color:#B1E2B7"/>
			<stop  offset="0.9534" style="stop-color:#D5EFD9"/>
			<stop  offset="1" style="stop-color:#FFFFFF"/>
		</linearGradient>
		<polygon class="st6" points="120.9,-68.3 114.4,-60.7 114.2,-60.9 113.2,-61.7 111.1,-63.4 112.1,-64.6 114.2,-62.8 119.7,-69.3 
					"/>
	</g>
</g>
</svg>
