<?xml version="1.0" encoding="utf-8"?>
<!-- Generator: Adobe Illustrator 25.0.1, SVG Export Plug-In . SVG Version: 6.00 Build 0)  -->
<svg version="1.1" id="Layer_1" xmlns="http://www.w3.org/2000/svg" xmlns:xlink="http://www.w3.org/1999/xlink" x="0px" y="0px"
	 viewBox="0 0 1920 1080" style="enable-background:new 0 0 1920 1080;" xml:space="preserve">
<style type="text/css">
	.st0{fill:url(#SVGID_1_);}
	.st1{fill:url(#SVGID_2_);}
	.st2{fill:url(#SVGID_3_);}
	.st3{fill:url(#SVGID_4_);}
</style>
<linearGradient id="SVGID_1_" gradientUnits="userSpaceOnUse" x1="1641.5538" y1="374.5991" x2="1920.2528" y2="231.6302">
	<stop  offset="0" style="stop-color:#21C8F6"/>
	<stop  offset="1" style="stop-color:#637BFF"/>
</linearGradient>
<path class="st0" d="M1788.6,175c-65,1.1-109.9,34.9-125,47.4c-2.8,3-50.3,56.2-35.9,130c10.1,51.8,46.6,93,93.6,105.6
	c-17.5-59.6,5.7-122.8,49.4-148c51.7-29.8,123.7-1.7,149.4,68.2V222.4C1905.2,210.2,1857.4,173.8,1788.6,175z"/>
<linearGradient id="SVGID_2_" gradientUnits="userSpaceOnUse" x1="373.3668" y1="721.826" x2="228.3174" y2="647.4176" gradientTransform="matrix(1 0 0 -1 0 1338.7461)">
	<stop  offset="0" style="stop-color:#21C8F6"/>
	<stop  offset="1" style="stop-color:#637BFF"/>
</linearGradient>
<path class="st1" d="M199,601.7c-20.6,31,44.3,105.1,52,114c16.4,18.8,34.9,39.3,59,38c18.2-1,31-13.9,45-28
	c12.2-12.3,44.2-44.6,40-72C386.4,597.6,225.2,562.2,199,601.7z"/>
<linearGradient id="SVGID_3_" gradientUnits="userSpaceOnUse" x1="1889.785" y1="731.9059" x2="1744.7356" y2="657.4975" gradientTransform="matrix(-1 0 0 -1 3421.1997 1248.9059)">
	<stop  offset="0" style="stop-color:#21C8F6"/>
	<stop  offset="1" style="stop-color:#637BFF"/>
</linearGradient>
<path class="st2" d="M1705.8,501.8c20.6,31-44.3,105.1-52,114c-16.4,18.8-34.9,39.3-59,38c-18.2-1-31-13.9-45-28
	c-12.2-12.3-44.2-44.6-40-72C1518.4,497.7,1679.6,462.3,1705.8,501.8z"/>
<linearGradient id="SVGID_4_" gradientUnits="userSpaceOnUse" x1="1207.3322" y1="440.598" x2="1486.0316" y2="297.6288" gradientTransform="matrix(-1 0 0 1 1485.7787 0)">
	<stop  offset="0" style="stop-color:#21C8F6"/>
	<stop  offset="1" style="stop-color:#637BFF"/>
</linearGradient>
<path class="st3" d="M131.4,241c65,1.1,109.9,34.9,125,47.4c2.8,3,50.3,56.2,35.9,130c-10.1,51.8-46.6,93-93.6,105.6
	c17.5-59.6-5.7-122.8-49.4-148C97.7,346.2,25.6,374.3,0,444.3V288.4C14.8,276.2,62.6,239.8,131.4,241z"/>
</svg>
